<?xml version="1.0" standalone="no"?>
<!DOCTYPE svg PUBLIC "-//W3C//DTD SVG 20010904//EN"
 "http://www.w3.org/TR/2001/REC-SVG-20010904/DTD/svg10.dtd">
<svg version="1.0" xmlns="http://www.w3.org/2000/svg"
 width="300.000000pt" height="329.000000pt" viewBox="0 0 300.000000 329.000000"
 preserveAspectRatio="xMidYMid meet">
<g transform="translate(0.000000,329.000000) scale(0.050000,-0.050000)"
fill="#000000" stroke="none">
<path d="M1385 6545 c1 -19 -4 -61 -12 -93 l-15 -58 -154 14 c-85 8 -390 16
-679 18 l-525 4 0 -55 0 -55 209 0 c256 0 256 -1 -10 -197 -109 -81 -199 -160
-199 -176 0 -35 25 -18 267 177 l157 126 198 -191 c220 -212 236 -250 133
-322 -36 -26 -130 -103 -210 -172 l-144 -126 -136 128 c-202 191 -271 246
-262 208 4 -18 87 -106 186 -195 235 -215 235 -220 2 -415 -100 -83 -184 -165
-188 -183 -9 -36 -17 -42 232 165 l165 138 132 -118 c73 -64 164 -145 203
-179 116 -99 105 -125 -130 -331 l-209 -182 -103 98 c-292 276 -293 277 -292
236 1 -24 73 -100 186 -196 232 -196 234 -219 36 -381 -161 -131 -234 -207
-217 -225 11 -10 93 55 348 280 l44 38 209 -175 c247 -207 255 -232 116 -343
-51 -41 -141 -119 -199 -173 -93 -86 -110 -94 -140 -71 -18 15 -109 93 -201
174 -91 80 -172 140 -180 133 -12 -13 119 -141 302 -295 120 -102 107 -138
-115 -320 -105 -86 -190 -170 -190 -187 0 -32 139 74 314 239 l83 79 107 -87
c374 -308 374 -307 160 -486 -85 -71 -171 -147 -192 -171 -49 -54 -52 -54
-133 20 -284 255 -339 299 -339 271 0 -17 85 -105 189 -196 247 -215 247 -221
-4 -427 -282 -232 -275 -266 118 -607 52 -45 70 -75 63 -103 -8 -29 -1 -40 25
-40 25 0 8 -21 -50 -65 -354 -265 -412 -357 -288 -454 l52 -41 -52 0 c-66 0
-67 -26 -3 -76 71 -56 54 -199 -20 -171 -21 8 -30 -2 -29 -36 0 -41 21 -54
160 -100 171 -58 217 -51 69 10 -50 20 -91 43 -91 50 -1 7 -3 46 -5 87 l-4 74
48 -44 c27 -24 80 -78 118 -119 64 -70 71 -73 98 -40 25 32 27 29 16 -27 -10
-53 1 -78 77 -167 50 -58 95 -134 102 -172 l13 -69 101 52 102 51 -64 54
c-162 135 -241 209 -241 227 0 17 165 -103 278 -202 57 -50 61 -51 117 -11 43
30 43 38 31 320 -14 335 -24 325 164 166 155 -130 196 -212 138 -279 -16 -17
-21 -39 -13 -48 8 -9 5 -11 -8 -3 -72 41 -259 -131 -230 -211 10 -25 13 -58 8
-73 -7 -20 2 -23 34 -13 41 13 43 9 32 -63 -6 -42 -6 -66 1 -52 16 36 54 31
102 -14 41 -38 42 -38 54 24 14 68 -2 95 -59 103 -55 8 -87 68 -49 92 17 10
31 30 33 44 1 14 3 39 5 55 1 21 13 17 43 -15 22 -24 50 -44 61 -44 62 0 99
-93 45 -114 -30 -11 -29 -15 3 -38 26 -19 31 -40 21 -81 -11 -44 -18 -49 -34
-26 -16 22 -18 19 -11 -16 7 -31 1 -45 -19 -45 -82 0 5 -33 92 -35 l101 -3 0
236 c0 210 -4 240 -40 272 -65 58 -50 118 50 203 52 45 100 106 112 147 13 39
41 100 63 137 44 72 41 476 -4 673 -10 44 -23 148 -30 230 -6 83 -17 180 -24
217 l-12 67 52 -34 c54 -35 72 -90 30 -90 -15 0 -19 -29 -10 -88 15 -109 58
-252 76 -252 8 0 29 -45 47 -100 18 -54 39 -98 46 -97 38 5 43 -7 23 -45 -18
-34 -18 -39 2 -27 18 11 22 1 15 -36 -7 -39 1 -58 37 -76 25 -14 56 -58 69
-97 13 -40 31 -81 40 -91 10 -10 18 -38 18 -62 0 -24 23 -77 50 -117 28 -41
50 -79 50 -86 0 -7 41 -50 90 -97 50 -47 90 -95 90 -107 0 -12 13 -22 28 -22
16 0 56 -23 89 -50 38 -33 71 -46 94 -37 24 9 49 -2 77 -37 45 -55 132 -93
132 -57 0 11 -15 21 -34 21 -25 0 -28 6 -11 23 30 30 128 4 121 -32 -3 -16 1
-29 9 -30 58 -5 73 2 62 29 -11 28 105 45 239 33 19 -1 41 11 47 27 7 18 37
30 75 30 48 0 83 20 140 78 71 72 172 119 172 79 0 -9 10 -17 22 -17 16 0 16
9 -1 29 -24 28 97 171 144 171 8 0 15 18 15 41 0 22 14 45 30 52 17 6 30 32
30 57 0 26 7 50 16 53 14 6 233 442 340 677 23 50 51 143 63 208 33 186 41
159 41 -140 0 -431 87 -977 124 -781 6 29 3 53 -7 53 -9 0 -17 28 -17 61 0 34
-10 80 -22 102 -31 59 -11 64 45 11 28 -25 75 -65 106 -90 46 -36 52 -49 32
-73 -14 -16 -19 -37 -13 -47 15 -26 -80 -111 -107 -95 -68 42 48 -159 140
-242 82 -74 95 -119 56 -193 -14 -26 -24 -149 -25 -309 l-2 -265 60 4 c33 2
71 11 85 22 15 11 48 10 88 -4 77 -27 77 -27 77 -1 0 12 -7 17 -16 11 -9 -5
-29 -1 -45 9 -21 13 -11 18 37 19 39 0 61 8 54 20 -7 11 -48 20 -91 20 -44 0
-80 7 -80 15 -1 8 -5 40 -9 70 -4 30 -1 55 6 55 47 0 2 344 -52 406 -38 43 21
29 76 -17 68 -58 136 -56 191 4 47 51 51 52 43 14 -13 -61 164 -231 310 -297
l114 -52 100 76 c55 42 130 98 166 124 82 59 155 148 106 129 -17 -6 -29 -3
-26 9 3 11 -43 69 -104 128 -60 59 -144 145 -186 192 l-75 86 -119 -114 c-66
-62 -113 -123 -106 -134 8 -13 0 -16 -21 -8 -18 7 -33 5 -33 -4 0 -10 -27 -21
-60 -26 -79 -12 -82 -16 84 107 l145 107 -277 6 c-308 6 -321 3 -245 -57 29
-23 67 -55 83 -72 16 -16 40 -23 53 -15 13 8 18 6 11 -6 -7 -11 5 -37 26 -56
42 -38 52 -70 22 -70 -15 0 -148 130 -397 391 -21 21 -2 46 98 133 68 58 161
140 208 181 106 95 83 103 302 -98 103 -95 194 -166 202 -158 8 8 -78 102
-191 208 -113 106 -205 202 -204 213 0 11 9 7 20 -10 17 -26 19 -25 20 3 0 19
75 92 166 163 91 71 177 144 192 162 39 47 43 44 194 -95 76 -71 163 -149 193
-175 72 -62 49 -162 -53 -238 -282 -210 -352 -271 -352 -306 0 -40 34 -25 90
39 11 13 104 92 207 177 l187 154 98 -96 c54 -53 98 -84 98 -69 0 42 -171 214
-202 204 -36 -12 53 76 137 135 36 24 65 58 65 75 0 22 -28 10 -95 -40 l-96
-70 -70 74 c-39 40 -127 125 -195 189 -160 151 -159 165 38 318 89 69 183 144
210 165 l48 39 80 -78 c51 -49 80 -67 80 -48 0 17 -27 56 -60 88 -80 77 -80
150 0 197 33 19 60 49 60 65 0 22 -19 16 -71 -24 l-71 -54 -74 68 c-399 364
-394 340 -106 564 l218 169 52 -52 c38 -39 52 -44 52 -21 0 18 -17 47 -37 65
-41 38 -37 117 9 155 45 37 32 61 -17 30 -63 -40 -468 329 -441 402 23 62 429
369 457 345 15 -13 21 10 20 80 0 53 -6 94 -13 90 -27 -17 -398 377 -398 422
0 36 48 83 209 203 115 86 210 167 210 181 1 37 -14 31 -95 -35 -41 -33 -136
-108 -213 -167 l-138 -106 -192 199 c-203 212 -220 252 -135 318 24 19 122 93
217 163 l174 129 184 -183 c125 -124 187 -174 194 -155 7 18 -55 89 -162 187
-236 216 -236 239 -3 423 94 74 170 150 170 168 0 21 -6 26 -15 12 -8 -12 -93
-82 -189 -154 l-174 -132 -161 162 c-89 89 -168 156 -175 148 -8 -7 56 -84
141 -169 232 -233 235 -224 -116 -479 l-159 -116 -195 189 c-269 261 -272 248
132 535 21 15 33 33 26 40 -13 13 -296 -176 -337 -225 -24 -29 -298 210 -298
260 0 10 97 12 225 5 124 -6 378 -17 565 -22 187 -6 409 -16 493 -22 193 -15
237 -2 237 68 0 61 23 56 -310 63 -562 10 -705 23 -753 68 -55 51 -456 66
-472 18 -5 -14 -17 -20 -27 -14 -10 6 -18 3 -18 -8 0 -81 -111 18 -116 103 -6
89 -9 94 -65 94 -56 0 -82 -29 -39 -43 11 -4 24 -27 29 -52 5 -25 15 -56 23
-68 9 -14 5 -18 -9 -9 -14 9 -23 0 -24 -22 -1 -48 -132 -113 -147 -73 -6 15
-28 27 -49 27 -21 0 -52 20 -70 45 -26 38 -31 39 -32 10 -1 -50 -41 -43 -41 7
0 25 -16 46 -40 52 -63 17 -50 70 15 63 31 -3 78 10 105 29 47 33 29 34 -419
34 -450 0 -573 -9 -338 -25 68 -5 138 -25 181 -52 39 -23 88 -43 110 -43 21 0
83 -29 136 -64 64 -43 100 -56 105 -40 5 13 16 24 26 24 10 0 12 -16 5 -35 -7
-19 -5 -28 4 -21 8 8 57 -20 108 -62 51 -42 124 -92 162 -112 96 -48 179 -129
166 -162 -5 -15 -18 -23 -28 -17 -31 19 -19 -19 22 -71 22 -27 39 -57 40 -66
0 -22 -87 26 -106 59 -9 15 -42 27 -74 27 -34 0 -67 15 -80 35 -18 29 -20 27
-9 -15 8 -27 25 -63 39 -80 14 -16 28 -39 32 -50 25 -65 118 -175 183 -214 41
-25 70 -57 65 -71 -5 -14 1 -25 12 -25 11 0 15 -9 8 -20 -7 -11 -3 -20 9 -20
11 0 20 -7 19 -15 -9 -56 4 -93 22 -65 16 24 19 21 20 -15 0 -53 4 -51 -80
-22 -62 21 -64 25 -29 50 35 26 34 27 -8 27 -24 0 -113 18 -197 41 -165 44
-187 39 -215 -56 -15 -50 92 -69 121 -22 10 16 4 20 -17 12 -20 -8 -35 1 -41
26 -7 28 0 39 27 39 39 0 79 -55 66 -90 -4 -11 31 -20 82 -20 85 0 209 -68
130 -71 -16 -1 -6 -11 21 -22 l50 -21 -48 -18 c-33 -13 -60 -11 -90 8 -23 16
-80 33 -125 39 -46 6 -139 39 -208 74 -130 66 -204 75 -110 13 121 -79 265
-148 336 -160 41 -8 75 -22 75 -31 0 -35 -173 5 -266 61 -53 32 -103 58 -110
58 -30 0 -124 96 -143 147 -11 29 -30 53 -42 53 -12 0 -15 -10 -7 -23 7 -12
-14 -2 -49 24 -34 25 -67 41 -74 35 -14 -14 88 -136 114 -136 11 0 42 -27 70
-60 28 -33 62 -60 77 -60 14 0 31 -13 36 -28 6 -15 52 -43 101 -62 57 -22 86
-44 80 -60 -12 -33 33 -63 51 -34 8 14 24 15 42 4 15 -9 56 -12 89 -6 66 12
118 46 72 46 -15 0 -23 5 -17 10 17 18 77 -13 65 -32 -6 -10 -2 -18 8 -18 11
0 34 -14 52 -31 28 -29 31 -29 31 0 0 18 23 57 50 87 54 58 70 107 19 55 -35
-34 -119 -44 -99 -11 7 11 30 20 51 20 22 0 39 14 39 31 0 18 10 25 22 18 12
-8 30 -2 40 13 13 21 17 17 18 -15 0 -24 -22 -70 -49 -103 -52 -61 -49 -84 12
-84 24 0 37 -15 37 -40 0 -22 10 -40 21 -40 13 0 16 17 8 43 -9 28 -6 38 9 28
12 -7 22 -26 22 -42 0 -16 11 -29 25 -29 18 -1 18 -5 -2 -18 -21 -13 -22 -21
-3 -32 19 -12 18 -19 -2 -31 -17 -11 -40 -3 -63 22 -44 47 -67 49 -82 9 -7
-16 -26 -30 -42 -30 -17 0 -31 -16 -31 -35 -1 -30 -4 -31 -22 -5 -15 21 -24
23 -31 6 -5 -13 -23 -19 -38 -13 -23 9 -29 -10 -31 -86 l-2 -97 -24 90 c-23
84 -26 87 -48 47 -23 -43 16 -167 48 -151 19 11 67 -63 67 -104 1 -20 25 -58
54 -83 50 -43 73 -169 38 -205 -22 -21 -71 43 -60 79 13 41 -21 52 -36 12 -18
-47 22 -115 69 -117 25 0 35 -6 21 -11 -14 -6 -25 -28 -25 -49 0 -42 -32 -52
-46 -13 -5 14 -15 19 -23 11 -23 -20 7 -56 47 -56 31 0 33 -12 16 -125 -28
-192 -33 -278 -20 -360 10 -70 46 -107 46 -48 0 15 16 49 36 75 50 65 120 248
136 354 l13 86 47 -44 c52 -49 48 -126 -10 -175 -29 -23 -28 -25 5 -15 20 7
51 12 70 12 23 0 34 19 37 63 3 34 7 64 10 66 3 3 99 74 213 160 l207 156 197
-198 c247 -248 248 -243 -29 -449 l-205 -153 -145 139 c-188 181 -208 160 -29
-28 169 -178 168 -191 -16 -336 -238 -188 -226 -188 -158 -1 102 275 62 576
-58 432 -13 -16 -50 -34 -81 -41 -134 -29 -242 -192 -238 -357 2 -73 4 -76 15
-25 18 80 60 30 70 -83 4 -45 23 -98 42 -117 25 -25 31 -52 22 -101 -8 -41 -5
-67 8 -67 33 0 25 -74 -10 -88 -34 -13 -59 32 -42 76 5 16 -8 45 -30 65 -32
29 -38 52 -29 117 12 82 -16 171 -35 109 -43 -146 -77 -289 -91 -389 -10 -66
-33 -169 -51 -230 -18 -60 -40 -141 -48 -180 -10 -52 -24 -70 -53 -70 -26 0
-50 -23 -69 -66 -16 -37 -40 -61 -54 -56 -33 13 -52 -51 -35 -119 10 -39 7
-51 -9 -41 -15 9 -18 3 -10 -18 9 -24 3 -31 -25 -27 -33 6 -39 -8 -44 -99 -4
-59 -14 -100 -25 -93 -18 11 -28 -60 -19 -140 3 -34 -1 -35 -28 -13 -28 24
-32 18 -36 -51 -2 -42 -6 -99 -8 -127 -2 -27 -5 -63 -7 -80 -2 -20 -12 -13
-29 18 -26 46 -27 45 -27 -33 0 -96 -21 -143 -47 -102 -17 27 -28 -2 -20 -50
2 -10 -5 -28 -16 -40 -12 -15 -11 -53 3 -107 30 -110 -3 -161 -73 -115 -25 16
-50 24 -57 18 -6 -7 -17 14 -24 45 -14 66 -102 119 -120 72 -6 -15 12 -51 39
-78 87 -87 84 -198 -4 -175 -29 7 -46 32 -55 79 -14 73 -51 94 -51 29 0 -45
-39 -76 -57 -45 -20 31 -123 53 -123 26 0 -12 17 -22 38 -22 28 0 36 -10 28
-40 -11 -40 -106 -38 -123 3 -10 27 -45 20 -42 -8 8 -56 -3 -72 -41 -65 -41 8
-52 -21 -23 -66 9 -14 31 -20 50 -13 18 8 33 4 33 -6 0 -44 -123 -46 -157 -3
-38 46 -143 36 -143 -14 0 -33 -32 -37 -51 -7 -7 12 -25 17 -40 11 -15 -6 -32
-3 -38 6 -6 10 17 23 51 29 85 17 63 63 -29 63 -41 0 -81 9 -89 21 -8 11 -35
22 -61 24 -67 4 -69 10 -66 150 2 79 -3 115 -14 98 -15 -23 -20 -23 -29 0 -8
20 -11 18 -12 -6 -4 -81 -101 -55 -102 27 0 18 -9 39 -20 46 -12 7 -15 23 -7
34 8 14 23 9 40 -15 15 -20 27 -29 27 -20 0 9 11 7 25 -4 14 -11 49 -25 78
-32 40 -10 51 -22 43 -51 -5 -20 0 -43 11 -50 11 -7 16 -43 10 -79 -9 -51 -4
-66 19 -66 47 0 54 104 10 141 -39 34 -48 72 -16 72 32 0 13 49 -25 64 -19 8
-35 34 -35 57 0 23 -8 36 -19 30 -28 -18 -45 59 -30 138 11 59 8 71 -20 71
-27 0 -32 -12 -22 -58 13 -57 -75 -164 -107 -130 -7 8 -1 17 13 22 29 11 34
46 7 46 -10 0 -28 -25 -39 -55 -19 -52 -20 -51 -21 30 -1 47 -11 85 -22 85
-11 0 -20 14 -20 30 0 36 23 39 56 6 19 -19 24 -14 24 20 0 30 -12 44 -38 44
-39 0 -76 85 -41 97 25 8 -42 123 -73 123 -24 0 -49 45 -47 87 0 12 13 6 30
-16 36 -48 37 -15 2 109 -43 150 -113 262 -113 179 0 -12 -10 -15 -22 -8 -12
8 -30 2 -39 -12 -13 -22 -22 -22 -47 0 -34 28 -44 101 -14 101 32 0 40 55 20
129 -16 57 -30 71 -69 71 -59 0 -61 -18 -10 -107 38 -69 36 -93 -9 -93 -32 0
-70 134 -70 246 0 50 -10 98 -21 105 -12 7 -20 37 -17 66 5 60 -15 156 -43
208 -26 47 -25 95 1 55 17 -26 19 -25 20 4 0 18 -10 40 -22 47 -13 8 -18 42
-12 78 7 43 -5 95 -38 162 -26 54 -48 120 -48 145 l0 46 -47 -51 c-63 -67 -73
-65 -73 20 0 49 15 86 50 121 47 47 49 56 27 129 -34 115 -86 157 -119 96 -38
-72 -78 -107 -78 -70 0 17 9 36 20 43 12 7 15 21 9 32 -7 10 0 17 15 13 31 -6
23 71 -8 82 -12 5 -38 25 -58 45 -21 21 -51 38 -66 38 -16 0 -33 11 -38 25
-20 58 -39 -11 -19 -75 l21 -69 -87 74 c-133 114 -124 152 73 315 88 74 164
130 168 126 4 -4 17 -67 29 -139 20 -128 59 -230 96 -255 10 -7 43 -55 74
-107 59 -102 99 -111 71 -16 -32 112 12 189 95 168 40 -10 45 -4 45 61 0 40
-9 72 -20 72 -11 0 -20 -10 -20 -21 0 -75 -124 -101 -137 -29 -4 22 -20 55
-36 73 -47 53 -30 200 22 193 25 -4 42 6 43 24 1 17 12 55 25 86 29 72 30 154
1 154 -13 0 -18 18 -12 42 l11 43 -46 -44 c-30 -28 -52 -36 -60 -23 -7 12 -3
22 9 22 12 0 31 27 43 60 22 63 47 77 63 35 29 -79 73 39 59 156 -15 119 -16
119 -80 116 -73 -3 -78 5 -33 55 44 49 51 135 10 134 -18 -1 -48 5 -67 13 -25
11 -35 6 -35 -17 0 -18 -9 -32 -20 -32 -11 0 -20 8 -20 18 0 28 57 66 79 53
12 -8 21 1 21 18 0 17 9 31 19 31 11 0 32 24 47 53 41 77 4 170 -60 154 -32
-8 -46 -3 -46 17 0 46 46 93 98 100 47 6 66 27 93 106 13 39 14 39 34 -5 19
-40 348 -51 392 -13 5 3 -53 34 -127 68 -121 55 -137 58 -158 29 -17 -23 -39
-28 -78 -18 -45 11 -51 19 -32 42 13 15 17 34 9 42 -8 8 -25 1 -38 -15 -49
-62 -108 -82 -119 -40 -5 22 3 42 19 48 19 8 24 3 15 -13 -8 -14 3 -10 24 9
38 33 63 138 33 134 -42 -7 -66 4 -53 25 10 16 4 20 -20 11 -21 -8 -29 -6 -21
7 7 11 31 15 54 8 33 -11 38 -7 28 21 -9 22 8 61 49 112 46 58 53 78 30 78
-18 0 -32 9 -32 20 0 12 21 15 50 8 32 -8 50 -4 50 11 0 13 9 18 20 11 22 -14
109 40 113 70 1 11 3 26 5 34 1 7 15 -4 30 -25 27 -36 30 -36 85 22 31 32 72
62 91 65 19 3 59 18 90 35 31 16 76 29 100 29 24 0 49 9 57 21 7 11 31 15 53
8 27 -9 36 -6 27 9 -9 15 12 22 63 23 l76 1 -60 29 -60 29 70 -10 c39 -6 111
3 160 18 85 27 71 28 -257 30 -324 2 -346 0 -320 -32 24 -30 23 -32 -12 -19
-22 8 -33 9 -25 1 36 -37 -52 -88 -130 -75 -69 11 -80 7 -89 -30 -7 -24 -20
-43 -29 -43 -10 0 -18 -13 -18 -28 0 -34 -54 -58 -71 -31 -6 11 -20 14 -31 8
-37 -23 -138 111 -138 183 0 59 -7 68 -49 68 -34 0 -48 -11 -46 -35z m2375
-15 c0 -17 -18 -30 -40 -30 -22 0 -40 13 -40 30 0 17 18 30 40 30 22 0 40 -13
40 -30z m-2314 -297 c5 -53 3 -89 -6 -80 -22 25 -42 178 -25 195 17 17 19 10
31 -115z m3425 98 c35 -26 18 -29 -166 -25 -189 4 -242 16 -180 41 59 24 308
12 346 -16z m-3672 -42 c20 -7 -30 -69 -159 -199 l-187 -187 -196 181 c-108
100 -197 192 -197 204 0 22 677 23 739 1z m74 -3 c-8 -7 12 -41 44 -75 100
-107 122 -364 43 -519 -33 -65 -60 -137 -60 -160 -1 -113 -32 -102 -228 80
-235 218 -234 209 -12 441 99 104 180 202 180 218 0 16 11 29 23 29 13 0 18
-6 10 -14z m118 -8 c23 -37 -25 -68 -60 -39 -17 14 -31 34 -31 43 0 26 75 22
91 -4z m2909 -18 c0 -11 32 -20 70 -20 39 0 70 -7 70 -16 0 -8 59 -80 130
-158 161 -176 168 -222 45 -298 -47 -29 -105 -71 -129 -93 -53 -48 -79 -35
-96 50 -8 36 -37 100 -66 142 -55 81 -90 413 -43 413 10 0 19 -9 19 -20z m805
-908 c-6 -32 -40 -74 -89 -107 -43 -30 -137 -99 -209 -154 -113 -85 -136 -95
-169 -75 -21 14 -38 16 -38 5 0 -10 9 -24 20 -31 26 -16 4 -111 -34 -150 -25
-26 -27 -21 -17 40 15 87 16 184 3 300 -6 50 -13 115 -16 147 -4 34 -24 66
-51 80 -42 23 -43 27 -13 70 30 42 29 48 -3 71 -49 36 -35 56 107 155 l126 87
197 -192 c171 -167 195 -200 186 -246z m-3858 -20 c-3 -41 -22 -73 -60 -101
-31 -23 -122 -94 -203 -158 l-146 -118 -44 39 c-449 396 -438 353 -149 595
l200 168 203 -182 c177 -160 202 -190 199 -243z m4273 -493 c0 -52 -32 -80
-290 -257 -55 -38 -106 -77 -113 -88 -20 -30 -40 -15 -245 179 -226 213 -233
245 -77 354 50 35 145 105 213 156 l122 93 195 -193 c144 -143 195 -206 195
-244z m-4307 286 c-7 -41 -18 -185 -26 -319 l-13 -244 -155 140 c-190 171
-189 183 21 365 176 153 189 157 173 58z m3236 -320 c7 -30 18 -71 23 -90 8
-25 -1 -35 -31 -35 -39 0 -50 -19 -42 -76 7 -53 -39 -85 -86 -60 l-43 24 48
11 c41 10 48 26 55 121 13 170 49 219 76 105z m591 -405 c-1 -38 -27 -67 -105
-120 -56 -38 -152 -109 -211 -158 l-108 -87 -57 57 -58 58 29 190 c16 105 29
246 30 314 0 100 8 129 39 151 53 37 442 -321 441 -405z m-4084 302 c63 -54
139 -120 170 -145 45 -38 58 -68 66 -157 l10 -110 -180 -144 -181 -145 -56 52
c-30 28 -123 109 -207 180 -196 165 -195 175 60 397 228 200 182 190 318 72z
m4775 -126 c249 -243 249 -240 -18 -445 -114 -87 -214 -158 -222 -157 -49 7
-392 377 -387 419 5 35 370 343 432 365 3 1 91 -81 195 -182z m-4351 -265 c0
-64 -33 -82 -59 -33 -31 58 -26 82 19 82 29 0 40 -13 40 -49z m-343 -624 c5
-3 10 -107 14 -231 l5 -226 -108 -86 -109 -86 -104 99 c-58 55 -148 133 -201
173 -143 109 -132 144 115 357 l198 171 92 -82 c50 -46 94 -85 98 -89z m4653
-77 c243 -210 243 -214 -47 -437 l-205 -157 -144 140 c-79 77 -169 162 -199
189 -93 84 -75 118 144 284 109 83 204 160 212 173 9 14 51 -14 115 -75 56
-53 112 -106 124 -117z m-4544 -50 c-27 -113 -71 -138 -58 -33 6 53 17 106 24
117 22 34 47 -29 34 -84z m3468 -73 c14 -38 -20 -99 -52 -92 -12 3 -22 -5 -22
-17 0 -12 -13 -17 -30 -11 -39 15 -39 -15 -1 -47 37 -30 63 -156 37 -182 -31
-31 -124 69 -116 125 25 177 146 324 184 224z m-3474 -166 c0 -32 -11 -65 -25
-73 -14 -8 -19 -8 -11 1 7 8 6 36 -4 61 -17 45 -9 70 23 70 10 0 17 -26 17
-59z m4033 -106 c93 -90 181 -171 198 -181 97 -54 22 -149 -318 -402 l-77 -57
-103 100 c-57 55 -147 140 -200 189 -138 126 -125 169 95 332 92 68 178 137
192 154 35 42 29 46 213 -135z m-3909 -10 c30 -5 60 -26 67 -47 6 -21 29 -47
50 -59 22 -11 39 -38 39 -60 0 -49 -102 -55 -141 -8 -24 29 -28 29 -43 0 -26
-45 -76 -38 -76 10 0 23 9 36 20 29 36 -22 22 114 -15 144 -33 27 -32 28 5 15
22 -8 64 -19 94 -24z m-136 -152 c64 -171 152 -283 244 -314 l70 -23 -65 -48
c-35 -26 -71 -58 -79 -71 -21 -33 -418 339 -418 392 0 32 177 219 193 204 2
-2 27 -65 55 -140z m110 -544 c2 -46 -13 -72 -57 -105 -33 -24 -124 -98 -203
-164 l-144 -121 -122 116 c-67 64 -156 144 -199 178 -117 95 -101 134 137 332
l200 167 193 -171 c162 -143 194 -181 195 -232z m3509 231 c224 -200 238 -241
118 -332 -41 -31 -79 -61 -85 -67 -28 -32 -217 -181 -230 -181 -8 0 -75 52
-151 115 l-136 115 -2 111 c-1 108 1 111 64 130 53 15 78 44 135 154 39 74 76
133 83 130 8 -3 99 -81 204 -175z m874 -65 c266 -247 273 -217 -136 -533 l-86
-66 -208 193 c-178 165 -207 199 -193 236 12 32 385 348 419 354 3 0 95 -82
204 -184z m-1214 102 c10 -38 -37 -77 -93 -77 -28 0 -61 73 -45 98 19 31 128
14 138 -21z m-2947 -267 c0 -192 -3 -195 -94 -106 -83 80 -83 126 -2 210 90
93 96 87 96 -104z m-860 -229 c203 -173 207 -177 209 -232 2 -42 -35 -82 -206
-221 l-209 -170 -184 176 c-247 236 -247 237 5 444 158 130 200 155 225 136
16 -12 89 -72 160 -133z m859 -241 l1 -250 -97 -72 -97 -72 -190 182 c-253
241 -252 234 -57 390 88 71 179 149 203 174 l44 47 96 -75 96 -74 1 -250z
m3704 196 c144 -132 197 -194 190 -220 -6 -23 2 -36 22 -36 17 0 -4 -24 -47
-52 -43 -29 -85 -65 -94 -81 -9 -15 -25 -23 -35 -16 -11 6 -19 3 -19 -8 0 -18
-179 -157 -217 -168 -13 -4 -234 184 -387 331 -31 29 -36 111 -9 125 13 7 222
175 291 234 109 93 72 106 305 -109z m-674 -161 c-7 -32 -49 -92 -93 -132
-142 -128 -136 -134 -136 148 l0 253 121 -105 c110 -95 120 -110 108 -164z
m-444 20 c-11 -40 -8 -42 21 -18 32 26 32 22 4 -57 -22 -64 -24 -93 -8 -112
18 -22 8 -26 -54 -23 -70 5 -78 0 -90 -55 -12 -52 -14 -49 -16 31 -1 50 -13
102 -26 115 -19 19 -16 24 10 24 19 0 34 -13 34 -30 0 -16 14 -30 30 -30 17 0
36 -2 43 -5 7 -3 16 31 20 75 8 85 20 130 34 130 5 0 4 -20 -2 -45z m-2325
-75 c0 -32 9 -63 20 -70 11 -7 20 1 20 17 0 36 60 61 85 36 28 -28 -3 -183
-35 -183 -15 0 -30 20 -34 45 -4 32 -20 45 -52 45 -47 0 -83 39 -83 90 0 27 2
27 19 0 15 -23 19 -14 20 36 0 39 8 61 20 54 11 -7 20 -38 20 -70z m2839 -85
c16 -25 28 -51 25 -59 -2 -8 8 -11 21 -6 14 5 91 -52 172 -127 l147 -135 -29
-70 c-16 -38 -56 -87 -87 -107 -32 -21 -105 -77 -162 -126 -125 -106 -127
-106 -271 47 l-115 122 0 150 0 151 75 56 c41 31 92 77 114 103 48 58 74 58
110 1z m-3595 -69 c324 -286 336 -318 174 -438 -53 -38 -139 -105 -192 -149
-120 -99 -107 -102 -253 43 -68 68 -152 145 -188 173 -102 78 -88 124 78 259
78 64 165 136 193 161 66 60 66 59 188 -49z m918 -117 c2 -55 12 -109 22 -122
17 -23 -16 -62 -36 -42 -16 17 -29 200 -17 239 19 58 28 35 31 -75z m-431
-324 c-5 -6 -42 14 -80 43 -94 71 -93 129 4 214 l75 66 6 -157 c3 -86 1 -161
-5 -166z m-829 -95 c158 -131 190 -164 182 -188 -5 -15 3 -34 17 -43 20 -12
14 -27 -24 -61 -48 -42 -66 -44 -324 -40 -305 5 -319 -3 -183 -100 50 -36 90
-71 90 -79 0 -53 76 -28 185 61 68 54 127 95 131 91 22 -22 -128 -200 -171
-203 -87 -7 -89 -9 -78 -51 6 -24 -83 54 -208 182 -263 270 -260 242 -44 422
96 80 182 158 192 174 13 21 35 10 101 -49 47 -42 107 -94 134 -116z m783 63
c30 -23 35 -63 35 -275 l-1 -248 -81 -68 -81 -67 -94 89 c-51 49 -141 128
-199 175 -143 116 -137 137 96 334 l190 161 50 -37 c28 -20 66 -49 85 -64z
m3155 -394 c0 -10 -22 -19 -50 -19 -47 0 -67 36 -37 66 16 16 87 -22 87 -47z
m-1275 -145 c39 -14 46 -45 15 -64 -11 -7 -20 -3 -20 8 0 11 -29 18 -65 16
-36 -2 -68 5 -73 16 -9 25 83 74 97 53 6 -9 27 -22 46 -29z m-818 -46 c36 -14
21 -68 -19 -68 -15 0 -28 18 -28 40 0 44 3 45 47 28z m591 -15 c12 -16 17 -42
10 -60 -17 -44 -88 -6 -88 48 0 45 44 52 78 12z m-2317 -35 c13 -24 15 -38 5
-32 -10 6 -29 -7 -43 -29 -22 -35 -20 -42 19 -52 42 -11 42 -12 7 -38 -35 -26
-35 -27 2 -28 38 -2 38 -2 -1 -18 -52 -21 -69 -9 -60 40 4 22 -1 35 -11 28
-52 -31 -96 12 -78 75 29 102 119 131 160 54z m699 13 c0 -31 -58 -71 -102
-71 -14 0 -4 22 22 50 53 57 80 64 80 21z m4042 -48 c2 -18 2 -40 0 -48 -1 -8
22 -15 50 -15 45 0 51 -6 39 -45 -8 -25 -16 -61 -19 -80 -2 -19 -12 -41 -21
-50 -10 -8 -12 -5 -4 8 7 13 -1 28 -18 35 -18 6 -26 3 -19 -8 11 -19 -86 -31
-177 -23 -137 12 -250 169 -151 211 32 14 52 32 43 40 -8 9 10 4 41 -10 41
-18 61 -19 70 -4 32 51 162 43 166 -11z"/>
<path d="M790 2478 c-75 -11 -72 -13 35 -15 63 -2 115 0 115 5 0 17 -75 22
-150 10z"/>
<path d="M5296 2418 c-35 -22 17 -40 103 -35 109 6 108 53 0 50 -45 -1 -91 -8
-103 -15z"/>
<path d="M282 2066 c-92 -39 -27 -92 104 -84 47 3 98 -2 112 -11 15 -9 32 -8
39 1 7 10 31 21 53 25 57 10 57 14 1 51 -68 44 -225 54 -309 18z"/>
<path d="M1053 1990 c6 -16 31 -30 55 -30 25 0 62 -13 83 -29 22 -17 62 -30
89 -30 48 0 49 1 11 30 -21 16 -31 29 -22 29 9 0 5 14 -9 30 -16 19 -60 30
-122 30 -78 0 -94 -6 -85 -30z"/>
<path d="M4843 1979 c-173 -38 -98 -97 117 -92 130 3 254 55 228 96 -12 20
-244 18 -345 -4z"/>
<path d="M2912 6451 c7 -18 24 -29 38 -24 13 5 50 -12 82 -38 66 -54 128 -63
128 -19 0 19 -19 30 -50 30 -27 0 -50 8 -50 18 0 10 -22 23 -48 30 -27 6 -63
17 -80 24 -24 9 -29 4 -20 -21z"/>
<path d="M3240 6444 c0 -8 27 -31 60 -51 33 -19 60 -29 60 -22 0 8 22 -1 49
-19 55 -36 71 -39 71 -16 0 15 -200 124 -227 124 -7 0 -13 -7 -13 -16z"/>
<path d="M2680 6420 c0 -23 42 -23 130 0 54 14 50 16 -35 18 -52 1 -95 -7 -95
-18z"/>
<path d="M2480 6389 c-41 -16 -54 -27 -33 -28 28 -1 35 -12 27 -41 -6 -22 -3
-35 6 -30 10 6 23 2 30 -10 7 -11 38 -20 70 -20 32 0 80 -9 109 -20 44 -16 51
-14 51 22 0 32 9 38 40 28 48 -15 120 5 120 33 0 12 -40 19 -95 16 -208 -12
-262 -3 -251 41 6 22 7 39 3 38 -4 -2 -38 -15 -77 -29z"/>
<path d="M2300 6333 c-111 -31 -94 -72 30 -73 46 0 53 -5 30 -20 -26 -17 -25
-19 5 -20 36 0 44 43 19 101 -11 25 -27 28 -84 12z"/>
<path d="M3190 6239 c-8 -12 -11 -24 -7 -27 4 -2 52 -36 107 -75 56 -39 128
-77 160 -85 l60 -14 -72 66 c-155 141 -222 178 -248 135z"/>
<path d="M2590 6205 c-102 -11 -118 -21 -90 -55 18 -22 32 -25 51 -9 41 34
134 -1 203 -76 57 -63 106 -73 106 -23 0 11 -7 16 -16 11 -21 -14 -76 21 -60
38 27 27 98 -33 86 -72 -8 -23 -3 -39 10 -39 12 0 18 -7 12 -17 -6 -9 3 -16
19 -16 16 0 29 8 29 18 0 9 9 12 20 5 11 -7 20 2 20 19 0 48 25 38 97 -39 37
-39 90 -76 119 -83 64 -16 104 -53 104 -96 0 -39 28 -40 60 -1 20 24 16 33
-23 51 -90 40 -137 73 -124 86 8 7 -2 13 -20 13 -19 0 -39 14 -46 30 -6 17
-22 30 -34 30 -13 1 -45 18 -73 40 -70 55 -3 54 117 0 48 -22 100 -40 116 -40
16 0 24 -9 17 -20 -7 -11 -3 -20 9 -20 11 0 21 -11 21 -25 1 -36 135 -97 239
-109 50 -5 106 -18 124 -28 47 -25 57 -23 57 12 0 17 8 30 18 30 10 0 16 -16
15 -35 -2 -23 14 -37 47 -42 48 -7 49 -6 15 32 -19 21 -29 44 -22 52 8 7 0 13
-18 13 -17 0 -57 25 -90 55 -35 33 -131 79 -237 114 -98 32 -206 75 -241 96
-37 21 -68 29 -75 18 -14 -22 177 -123 231 -123 19 0 39 -8 45 -17 6 -10 66
-33 134 -52 75 -21 115 -42 104 -53 -17 -17 -70 -6 -186 37 -16 6 -47 12 -67
15 -20 2 -43 13 -50 24 -20 31 -208 113 -248 108 -22 -3 -35 9 -35 32 1 30 4
31 20 6 17 -26 19 -25 20 5 0 19 -12 35 -26 35 -14 0 -61 18 -103 40 -43 22
-82 36 -86 31 -12 -11 71 -91 95 -91 11 0 20 -10 20 -22 0 -13 -28 -17 -75
-10 -41 6 -78 11 -82 11 -4 1 -3 13 3 29 14 35 -79 81 -93 46 -7 -17 -16 -16
-30 5 -12 17 -27 23 -35 16 -8 -8 -24 -8 -36 1 -12 8 -49 12 -82 9z"/>
<path d="M3711 6181 c-7 -11 -3 -21 9 -21 13 0 18 -16 11 -37 -7 -22 -2 -36
14 -37 14 0 48 -6 75 -14 l50 -14 -50 42 c-27 24 -60 56 -73 72 -15 20 -28 23
-36 9z"/>
<path d="M1905 6134 c-91 -41 -48 -60 178 -80 80 -8 165 11 136 30 -58 38
-158 75 -194 71 -60 -5 -57 -23 10 -49 49 -20 50 -22 11 -24 -24 -1 -55 15
-70 35 -21 30 -35 33 -71 17z"/>
<path d="M2218 6132 c13 -15 55 -34 93 -41 45 -8 65 -21 56 -35 -9 -15 -2 -18
21 -9 20 7 49 13 65 13 26 0 26 4 0 30 -17 17 -48 30 -70 30 -23 0 -46 9 -53
20 -7 11 -40 20 -74 20 -50 0 -57 -5 -38 -28z"/>
<path d="M3943 6072 c4 -21 29 -52 55 -69 47 -31 47 -31 26 9 -35 66 -91 106
-81 60z"/>
<path d="M2540 6047 c0 -12 89 -87 104 -87 50 0 10 76 -44 84 -33 5 -60 6 -60
3z"/>
<path d="M1741 6003 c-12 -3 -21 -21 -21 -38 0 -17 6 -26 13 -19 14 15 67 -22
67 -46 0 -8 -23 -39 -51 -69 -56 -60 -51 -97 6 -46 19 18 84 39 144 47 l108
14 -46 37 c-25 20 -52 32 -61 27 -8 -5 -27 4 -40 20 -21 26 -14 30 46 30 40 0
77 -9 84 -20 7 -11 35 -20 63 -20 34 0 54 -13 61 -40 6 -22 25 -40 43 -40 18
0 53 -6 78 -13 56 -15 61 25 5 43 -22 7 -40 26 -40 41 0 16 -18 29 -40 29 -22
0 -40 7 -40 15 0 50 -270 84 -379 48z"/>
<path d="M3749 5945 c15 -60 39 -78 166 -128 l85 -33 -32 53 c-29 48 -182 163
-218 163 -8 0 -8 -25 -1 -55z"/>
<path d="M2283 5883 c26 -20 65 -44 87 -53 37 -15 37 -17 4 -25 -42 -10 -10
-65 38 -65 16 0 28 -9 28 -20 0 -11 14 -20 31 -20 80 0 269 -98 276 -142 2
-16 12 -40 21 -54 31 -51 -3 -44 -78 16 -79 63 -101 71 -118 43 -6 -10 20 -34
59 -55 38 -20 74 -53 80 -73 9 -28 20 -31 50 -14 27 14 39 14 39 0 0 -12 12
-21 27 -21 15 0 40 -16 57 -35 35 -40 41 -110 8 -90 -12 8 -38 11 -56 8 -48
-7 -226 99 -196 117 15 9 -5 31 -53 61 -122 75 -166 97 -162 83 3 -8 -4 -16
-15 -19 -11 -3 -21 4 -22 15 -2 11 -4 29 -5 40 -5 31 -132 76 -216 75 -42 0
-64 -5 -48 -11 16 -5 47 -27 69 -47 22 -20 49 -38 61 -39 11 -1 -10 -10 -49
-19 -45 -11 -93 -9 -134 6 -68 24 -108 9 -73 -26 46 -46 374 -140 362 -104 -3
8 4 15 15 15 11 0 19 -10 18 -23 -2 -13 38 -29 89 -37 93 -14 141 -53 142
-115 1 -19 15 -35 31 -35 34 0 40 -31 10 -50 -11 -7 -31 13 -44 44 -13 31 -26
59 -28 62 -6 9 -303 83 -388 97 -38 6 -78 16 -88 22 -9 6 -61 12 -114 14 -57
2 -111 16 -132 35 -63 57 -140 66 -155 18 -8 -23 -27 -42 -42 -42 -16 0 -29
-9 -29 -20 0 -11 48 -20 108 -20 135 0 238 -45 177 -77 -22 -12 -44 -17 -50
-11 -18 17 -185 38 -257 31 -18 -2 -41 -36 -55 -80 -29 -99 -32 -86 34 -159
57 -65 158 -91 137 -36 -8 19 11 31 63 39 129 22 183 14 278 -39 64 -36 110
-48 149 -40 31 6 56 4 56 -6 0 -23 413 -22 481 1 37 13 69 13 95 -1 21 -11 85
-25 141 -30 57 -6 121 -20 142 -32 22 -11 105 -25 185 -31 81 -5 173 -13 206
-18 158 -24 318 -31 293 -14 -43 29 6 46 67 23 71 -27 90 -25 90 8 0 15 16 34
35 43 30 12 28 17 -15 30 -82 25 -97 21 -107 -26 -9 -40 -9 -40 -7 5 3 56 -18
100 -48 100 -11 0 -15 -9 -8 -20 30 -48 -34 -13 -110 60 -46 44 -92 80 -102
80 -11 0 -50 29 -88 65 -38 36 -123 106 -189 155 -66 50 -120 105 -120 124 -1
18 -20 39 -43 46 -53 18 -78 -7 -33 -32 19 -11 35 -30 35 -42 0 -12 16 -34 35
-48 32 -25 31 -27 -12 -27 -40 -1 -44 -6 -23 -31 14 -16 33 -30 44 -30 47 0
189 -181 162 -207 -24 -25 -44 -12 -128 77 -47 50 -97 90 -111 90 -15 0 -27
14 -27 31 0 19 -9 26 -23 17 -14 -9 -18 -5 -9 8 15 24 -27 104 -55 104 -9 0
-12 -13 -6 -30 14 -37 14 -37 -72 -1 -38 16 -97 61 -131 100 -35 39 -71 71
-80 71 -10 0 -34 18 -54 40 -23 25 -62 40 -104 40 -56 0 -63 5 -42 27 14 16
37 24 50 19 72 -28 87 29 16 63 -41 19 -91 49 -112 68 -24 20 -81 34 -150 37
-111 4 -111 4 -65 -31z m-174 -546 c55 -25 72 -69 19 -49 -17 7 -53 18 -80 24
-26 7 -43 20 -37 30 15 24 37 23 98 -5z m287 -82 c17 6 25 4 19 -7 -6 -10 12
-19 40 -21 49 -3 91 -42 74 -69 -27 -43 -315 -15 -309 31 2 11 -13 26 -34 34
-33 13 -33 14 -1 16 19 0 35 9 35 19 0 10 31 11 72 1 40 -9 87 -11 104 -4z
m583 -53 c8 -13 26 -21 40 -18 14 3 31 -7 36 -22 7 -20 0 -25 -24 -15 -19 7
-57 13 -84 13 -27 0 -44 9 -37 20 7 11 -1 14 -19 8 -20 -8 -31 -1 -31 18 0 37
95 34 119 -4z m176 -64 c2 -31 -3 -36 -23 -20 -14 12 -32 16 -39 8 -7 -7 -13
2 -13 21 0 49 71 42 75 -9z"/>
<path d="M3042 5848 c-1 -23 20 -68 48 -100 27 -32 50 -47 50 -34 0 13 -9 29
-20 36 -11 7 -20 35 -20 62 0 28 -8 45 -18 39 -10 -6 -23 0 -29 14 -5 14 -11
6 -11 -17z"/>
<path d="M2709 5790 c43 -39 86 -70 95 -70 9 0 16 -10 16 -21 0 -13 -17 -16
-43 -8 -49 16 48 -75 147 -137 109 -68 106 -18 -3 60 -76 54 -116 123 -84 145
8 6 4 34 -10 61 -26 49 -26 49 -27 5 0 -56 -31 -58 -60 -5 -12 22 -41 40 -66
40 -39 0 -35 -8 35 -70z"/>
<path d="M3153 5805 c-13 -22 61 -118 78 -101 7 8 -5 37 -27 66 -23 28 -45 44
-51 35z"/>
<path d="M1940 5780 c0 -11 9 -20 20 -20 11 0 20 -13 20 -28 0 -30 96 -63 117
-40 7 7 2 18 -12 22 -14 5 -20 19 -13 30 7 11 1 28 -14 38 -38 24 -118 23
-118 -2z"/>
<path d="M3400 5760 c0 -11 9 -20 20 -20 11 0 20 -16 20 -35 0 -20 28 -58 63
-85 34 -28 85 -75 113 -105 47 -52 121 -79 94 -35 -15 25 2 26 46 2 23 -12 42
-9 60 10 21 23 19 28 -10 31 -20 1 -65 5 -100 8 -43 4 -90 31 -140 80 -42 41
-67 71 -56 66 11 -4 43 -18 70 -31 28 -12 131 -34 230 -47 99 -14 218 -42 264
-62 89 -39 160 -52 108 -19 -16 11 -21 28 -11 45 8 15 8 21 0 13 -9 -8 -35 -1
-58 15 -23 16 -61 29 -83 29 -23 0 -52 10 -64 22 -12 12 -106 33 -209 48 -104
14 -223 40 -265 58 -91 38 -92 38 -92 12z"/>
<path d="M4071 4991 c50 -38 62 -38 76 -1 9 23 -3 30 -51 30 -60 0 -62 -2 -25
-29z"/>
<path d="M4112 4588 c-27 -71 -13 -96 28 -48 21 25 34 53 28 63 -16 27 -43 20
-56 -15z"/>
<path d="M2300 4575 c0 -40 93 -57 122 -22 17 20 16 27 -5 27 -15 0 -47 6 -72
13 -32 8 -45 3 -45 -18z"/>
<path d="M2500 4502 c0 -10 18 -14 40 -8 22 6 52 1 67 -11 15 -13 33 -17 40
-9 31 30 8 46 -67 46 -44 0 -80 -8 -80 -18z"/>
<path d="M2281 4398 c-77 -16 -133 -74 -102 -105 12 -12 29 -12 45 1 38 29
100 49 86 27 -13 -22 67 -70 86 -52 7 7 1 20 -13 29 -19 12 -18 21 6 41 65 54
10 84 -108 59z"/>
<path d="M3677 4350 c-5 -5 -119 -12 -253 -15 -134 -3 -244 -11 -244 -18 0
-16 101 -45 137 -39 15 3 21 -5 14 -17 -7 -11 -4 -21 7 -21 24 0 4 -63 -27
-85 -15 -10 -14 -14 1 -15 13 0 18 -21 12 -53 -7 -37 -3 -49 13 -39 13 8 23
27 23 43 0 16 10 29 22 29 16 0 15 9 -2 30 -14 17 -16 30 -5 30 12 0 25 -11
30 -25 13 -34 223 -30 265 5 17 14 28 49 26 78 -2 29 3 64 10 76 14 23 -12 54
-29 36z"/>
<path d="M2424 4288 c-11 -21 -23 -47 -26 -58 -8 -24 -63 -14 -80 13 -10 17
-59 22 -158 14 -16 -1 -46 5 -65 13 -27 11 -33 7 -23 -18 11 -28 -8 -32 -141
-32 -147 0 -154 -2 -150 -45 5 -70 -22 -135 -58 -137 -21 -1 -24 -5 -8 -11 13
-6 54 11 89 36 95 68 212 117 278 117 32 0 58 8 58 18 0 10 47 7 106 -6 58
-14 116 -21 130 -17 13 5 24 -2 24 -16 0 -16 21 -19 65 -10 36 7 94 15 130 18
36 4 71 13 79 21 20 19 -38 54 -70 42 -14 -5 -21 -2 -15 8 14 23 -42 69 -66
54 -11 -7 -24 -1 -30 13 -7 17 -10 16 -12 -5 -1 -25 -5 -25 -19 -2 -14 22 -21
20 -38 -10z"/>
<path d="M3934 4272 c-15 -37 2 -52 59 -52 57 0 61 31 8 59 -50 27 -55 27 -67
-7z"/>
<path d="M3740 4160 c0 -11 10 -20 23 -20 12 0 33 -14 46 -32 15 -20 43 -29
82 -23 l59 8 -65 28 c-36 15 -65 35 -65 43 0 9 -18 16 -40 16 -22 0 -40 -9
-40 -20z"/>
<path d="M3974 4032 c-16 -41 116 -151 166 -138 22 6 40 19 40 30 0 10 -8 13
-18 7 -10 -6 -22 1 -28 16 -6 15 -39 33 -74 40 -34 7 -57 21 -51 31 6 11 3 24
-7 31 -10 6 -23 -2 -28 -17z"/>
<path d="M1911 3889 c-37 -13 -76 -16 -85 -7 -42 42 -75 -18 -50 -90 18 -47
19 -81 6 -106 -10 -20 -24 -52 -30 -71 -13 -43 -72 -46 -72 -4 0 18 -10 25
-22 18 -72 -45 34 -251 128 -247 151 5 214 21 214 56 0 40 37 82 74 82 16 0
26 -26 26 -69 0 -75 56 -131 131 -131 49 0 109 58 109 105 0 56 40 60 110 12
54 -37 62 -50 39 -63 -17 -9 -25 -25 -18 -35 18 -29 83 -22 118 12 82 82 141
-12 65 -103 -32 -38 -47 -78 -43 -113 4 -35 -3 -55 -20 -55 -48 0 -90 -87 -64
-131 48 -81 90 -52 170 120 84 179 114 391 55 391 -15 0 -38 13 -51 29 -13 16
-52 31 -86 35 -63 6 -105 56 -47 56 41 0 42 52 2 67 -16 7 -30 23 -31 37 0 48
-183 154 -244 142 -77 -15 -195 11 -195 43 0 37 -106 49 -189 20z m89 -168
c39 -10 124 -24 190 -31 66 -6 128 -20 139 -31 10 -10 38 -19 61 -19 58 0 120
-48 101 -78 -11 -18 -21 -15 -40 10 -21 29 -45 32 -158 21 -78 -8 -133 -6
-133 4 0 25 -164 41 -192 20 -29 -23 -125 -14 -135 12 -32 85 42 125 167 92z"/>
<path d="M3778 3805 c-2 -8 -2 -22 0 -30 2 -18 -106 -17 -265 3 -133 17 -223
-42 -246 -160 -12 -57 -94 -129 -125 -109 -9 5 -30 -5 -46 -24 -92 -107 -41
-268 112 -360 126 -76 160 -84 85 -19 -29 25 -53 53 -53 63 0 10 -17 37 -38
60 -71 76 -62 120 25 127 43 4 96 24 119 45 51 48 72 49 88 4 20 -58 90 -125
130 -125 47 0 141 98 128 133 -17 44 33 55 66 14 18 -21 48 -45 67 -52 19 -8
35 -24 35 -37 0 -15 28 -18 90 -9 83 12 90 10 90 -29 0 -30 10 -41 35 -36 25
5 34 24 32 66 -1 33 12 69 29 82 29 21 28 26 -2 57 -19 19 -34 46 -34 61 0 15
-20 42 -44 59 -57 39 -80 7 -63 -86 12 -64 10 -65 -30 -40 -24 15 -43 33 -43
40 0 17 -125 60 -174 59 -20 -1 -93 -2 -164 -3 -70 0 -168 -9 -217 -18 l-90
-17 48 48 c57 57 160 73 216 34 24 -16 52 -21 66 -12 14 9 79 18 145 20 256 9
257 9 273 86 15 69 -32 147 -62 103 -21 -32 -99 -39 -123 -11 -25 30 -57 37
-60 13z"/>
<path d="M2828 3557 c-6 -9 0 -17 13 -17 13 0 19 -12 13 -27 -6 -14 1 -26 14
-26 13 0 25 19 27 43 4 43 -45 62 -67 27z"/>
<path d="M1631 3248 c-7 -29 -8 -57 -3 -63 20 -20 72 53 60 84 -18 46 -42 38
-57 -21z"/>
<path d="M1984 3233 c10 -35 24 -77 29 -95 7 -23 38 -33 113 -35 100 -4 113
20 24 44 -22 6 7 6 65 0 69 -7 105 -3 105 11 0 12 23 22 50 22 31 0 50 11 50
30 0 33 -33 41 -43 10 -13 -38 -187 -47 -222 -12 -18 18 -44 32 -59 32 -14 0
-50 13 -79 28 l-53 28 20 -63z"/>
<path d="M3715 3185 c-32 -7 -44 -29 -38 -69 2 -8 -12 -9 -31 -2 -20 8 -28 5
-20 -8 8 -12 -17 -26 -61 -33 -54 -9 -78 -4 -91 18 -25 44 -75 -13 -60 -69 11
-42 65 -50 116 -18 11 7 62 9 114 5 106 -9 108 -7 124 95 12 79 3 94 -53 81z"/>
<path d="M2495 2814 c6 -89 -3 -126 -54 -225 -37 -71 -62 -102 -62 -78 -2 38
-2 38 -19 -1 -9 -22 -18 -29 -19 -15 0 14 -10 25 -22 25 -13 0 -16 -25 -9 -65
10 -49 3 -76 -29 -109 -38 -41 -54 -86 -31 -86 37 0 150 97 150 128 0 46 16
35 27 -19 15 -79 38 -110 80 -106 82 6 110 -3 123 -43 7 -22 35 -45 62 -52 27
-7 66 -35 88 -63 25 -31 53 -46 76 -40 21 5 54 -3 74 -18 62 -45 190 11 190
83 0 22 -77 8 -88 -15 -6 -14 -9 -8 -7 13 3 21 22 48 44 60 21 12 59 43 84 70
39 40 59 45 127 34 49 -8 80 -5 80 8 0 11 10 20 21 20 12 0 16 -9 9 -20 -7
-11 -2 -20 11 -20 15 0 19 18 11 51 -30 116 36 87 80 -37 12 -33 53 -40 50 -8
-1 7 -2 32 -2 54 0 22 -13 40 -30 40 -16 0 -35 22 -42 50 -7 27 -20 45 -29 40
-19 -13 -46 25 -54 77 -3 21 -26 63 -50 93 -25 30 -54 69 -65 86 -43 66 -150
64 -150 -2 0 -49 10 -61 57 -70 32 -7 63 -28 70 -48 6 -20 30 -66 51 -103 54
-93 37 -117 -94 -132 -176 -20 -270 -67 -199 -99 14 -6 3 -9 -25 -7 -27 2 -62
-4 -76 -12 -39 -24 -119 2 -196 63 -47 37 -92 54 -143 54 -98 0 -109 66 -36
204 28 52 52 87 52 76 1 -11 10 1 20 26 14 35 7 70 -32 145 -64 127 -83 125
-74 -7z"/>
<path d="M1800 2866 c0 -21 94 -95 116 -90 41 10 105 81 84 94 -19 12 -200 8
-200 -4z"/>
<path d="M3744 2853 c-25 -14 -39 -31 -31 -39 7 -8 3 -14 -10 -14 -40 0 -25
-33 26 -56 36 -16 50 -16 56 2 6 16 19 13 43 -11 43 -43 152 7 152 70 0 44
-58 70 -80 36 -8 -14 -18 -17 -23 -6 -13 34 -85 44 -133 18z"/>
<path d="M1771 2703 c-67 -40 -89 -83 -43 -83 18 0 32 9 32 20 0 12 23 31 50
44 28 12 50 30 50 39 0 24 -22 19 -89 -20z"/>
<path d="M2914 2680 c-13 -33 -37 -60 -53 -60 -36 0 -86 -135 -56 -153 10 -6
28 -2 40 10 11 11 47 16 78 9 68 -13 79 42 25 124 -29 45 -29 52 0 81 38 37
40 49 10 49 -12 0 -32 -27 -44 -60z"/>
<path d="M1833 2607 c-20 -21 -15 -147 6 -147 11 0 15 14 8 30 -6 18 0 30 16
30 58 1 86 34 58 68 -27 33 -65 41 -88 19z"/>
<path d="M3720 2545 c1 -42 12 -58 93 -131 l62 -56 2 106 c1 101 0 104 -27 56
-16 -27 -29 -39 -29 -26 -2 61 -101 112 -101 51z"/>
<path d="M2384 2011 c-95 -85 -115 -88 -140 -16 -17 49 -21 51 -35 18 -9 -23
-5 -43 11 -53 14 -8 18 -26 10 -40 -12 -19 -19 -18 -31 2 -24 38 -32 21 -45
-97 -14 -119 18 -139 108 -68 61 48 131 70 146 47 18 -30 565 -47 787 -25 190
19 210 17 270 -19 121 -74 146 -59 147 90 1 138 -4 149 -42 97 -13 -19 -34
-27 -48 -18 -18 11 -18 21 -1 43 19 22 17 28 -9 28 -17 0 -32 -8 -32 -18 0
-26 -118 -39 -127 -13 -5 11 -18 -3 -29 -31 l-21 -52 -286 -3 c-626 -7 -588
-14 -566 104 15 82 20 85 62 43 16 -16 23 -30 14 -30 -8 0 -4 -11 9 -24 36
-36 71 7 39 48 -52 66 -108 62 -191 -13z"/>
<path d="M2640 1991 c0 -21 19 -31 62 -31 76 0 69 47 -9 56 -37 5 -53 -2 -53
-25z"/>
<path d="M5666 2006 c-151 -19 -97 -98 74 -108 218 -12 260 -2 260 62 l0 60
-135 -3 c-74 -2 -164 -7 -199 -11z"/>
<path d="M2953 1626 c-7 -7 -53 -11 -103 -9 -84 3 -90 0 -90 -47 0 -48 -5 -50
-118 -50 -76 0 -122 -9 -129 -25 -8 -20 -10 -20 -11 0 -3 45 -102 30 -102 -15
0 -22 13 -40 30 -40 17 0 30 -13 30 -30 0 -22 22 -30 79 -30 43 0 84 -8 90
-19 23 -36 127 -76 154 -59 15 10 53 18 84 18 60 0 69 62 24 165 -9 21 -7 35
7 35 12 0 22 -13 22 -28 0 -16 38 -56 84 -90 101 -75 236 -88 236 -24 0 21 18
42 40 48 24 6 40 27 40 52 0 39 -9 41 -152 33 -101 -5 -172 2 -215 20 -34 15
-53 28 -42 28 38 2 96 54 75 67 -11 7 -26 7 -33 0z"/>
<path d="M3420 1360 c0 -71 1 -71 43 -23 29 34 28 39 -6 60 -33 21 -37 17 -37
-37z"/>
<path d="M2868 1173 c10 -42 5 -46 -38 -38 -39 8 -53 -1 -68 -41 -11 -28 -32
-54 -47 -57 -21 -5 -24 -23 -11 -72 l17 -65 80 53 c43 29 79 63 79 76 0 55 48
72 73 26 26 -45 26 -45 26 10 1 30 10 55 21 55 11 0 20 -13 20 -30 0 -16 9
-30 20 -30 31 0 24 66 -13 118 -25 37 -36 41 -51 19 -15 -21 -21 -21 -29 -2
-20 50 -92 30 -79 -22z"/>
<path d="M5520 905 c165 -128 280 -251 282 -303 1 -36 33 -80 100 -140 l98
-88 0 82 c0 46 -11 85 -25 90 -20 7 -20 17 0 51 25 43 35 183 13 183 -28 0
-128 -85 -118 -100 6 -10 -7 -16 -30 -15 -64 5 -47 40 59 115 77 54 99 82 100
125 l1 55 -275 0 -275 0 70 -55z"/>
<path d="M4231 778 c-37 -178 -197 -573 -249 -612 -272 -205 -2062 -154 -2062
58 0 13 -12 37 -27 54 -26 32 -137 306 -162 402 -39 146 -116 162 -116 24 0
-32 -20 -73 -50 -100 -58 -54 -78 -46 -45 16 27 50 8 84 -22 39 -10 -16 -14
-56 -8 -89 32 -169 53 -310 59 -399 3 -55 16 -103 29 -107 12 -4 22 -20 22
-36 0 -15 11 -28 25 -28 15 0 25 27 25 70 0 39 -6 70 -13 70 -23 0 -31 98 -10
119 15 15 13 21 -5 21 -17 0 -23 15 -16 40 6 22 3 40 -6 40 -24 0 -46 182 -24
204 24 24 48 -41 114 -301 49 -198 50 -208 16 -235 -33 -25 -32 -27 17 -27 99
-2 112 13 97 109 -7 49 -7 84 2 79 8 -5 21 0 28 12 21 34 61 -11 99 -111 l34
-90 1003 5 1003 5 31 80 c16 44 44 83 60 87 93 21 97 20 89 -22 -4 -23 -17
-48 -28 -54 -11 -7 -14 -33 -8 -58 19 -73 277 -57 278 18 1 27 7 60 15 73 58
93 2 600 -59 539 -15 -14 -87 62 -87 92 -1 68 -36 77 -49 13z m186 -226 c8
-69 -56 -432 -77 -432 -8 0 -10 -22 -5 -50 9 -45 3 -50 -52 -50 -57 0 -60 4
-44 45 11 25 38 139 61 255 23 116 46 231 52 256 13 62 56 45 65 -24z"/>
<path d="M4911 582 c-10 -16 42 -62 124 -110 42 -24 28 -4 -44 64 -37 36 -73
56 -80 46z"/>
<path d="M5704 481 c-35 -34 -71 -61 -81 -61 -9 0 -39 -20 -66 -45 -26 -25
-70 -55 -98 -67 -64 -30 75 -97 358 -173 l187 -51 -8 115 c-8 107 -15 122
-118 229 l-110 114 -64 -61z"/>
<path d="M3841 407 c0 -70 3 -74 28 -41 31 42 28 98 -6 110 -15 5 -23 -20 -22
-69z"/>
<path d="M4910 452 c-32 -110 -17 -167 38 -146 45 18 45 167 0 167 -17 0 -35
-9 -38 -21z"/>
<path d="M912 277 c8 -13 -2 -35 -23 -50 -43 -32 -23 -36 32 -6 47 24 52 79 8
79 -19 0 -26 -9 -17 -23z"/>
<path d="M4839 243 c-53 -43 -42 -103 20 -103 33 0 41 13 41 70 0 81 -1 82
-61 33z"/>
<path d="M2564 217 c5 -15 30 -30 55 -34 31 -4 43 2 37 20 -5 15 -30 30 -55
34 -31 4 -43 -2 -37 -20z"/>
<path d="M5121 221 c-86 -11 -87 -12 -52 -48 43 -42 127 -78 151 -63 8 5 48
-4 88 -20 40 -17 72 -26 72 -21 0 6 32 -8 71 -29 60 -34 105 -40 315 -38 134
2 226 7 204 12 -22 6 -50 18 -62 28 -12 10 -44 17 -70 15 -26 -1 -73 4 -103
12 -34 10 -55 8 -55 -5 0 -27 -82 -4 -195 53 -165 84 -272 115 -364 104z"/>
<path d="M4944 181 c13 -21 31 -34 40 -29 9 6 16 -1 16 -14 0 -14 5 -19 12
-13 19 19 -31 95 -63 95 -24 0 -25 -7 -5 -39z"/>
<path d="M800 179 c0 -12 -9 -16 -20 -9 -11 7 -20 3 -20 -8 0 -11 -13 -16 -28
-10 -15 6 -34 1 -41 -11 -8 -12 -21 -17 -30 -12 -24 15 -37 -53 -19 -99 8 -22
16 -29 17 -15 0 14 21 24 46 24 43 -2 43 -3 5 -19 -26 -11 38 -18 178 -19 120
0 212 5 205 13 -8 8 -82 12 -165 9 -102 -3 -147 2 -139 16 8 12 31 21 52 21
22 0 39 7 39 16 0 9 17 35 39 58 38 41 38 42 -7 39 -33 -2 -43 -13 -36 -38 6
-26 -3 -35 -36 -35 -37 0 -42 8 -32 50 7 28 8 50 2 50 -5 0 -10 -10 -10 -21z"/>
<path d="M8 97 c5 -26 10 -58 11 -72 1 -24 81 -37 81 -13 0 7 -23 39 -50 72
-47 56 -50 56 -42 13z"/>
<path d="M100 101 c0 -10 9 -24 19 -30 11 -7 14 -25 8 -42 -8 -21 3 -29 41
-29 29 0 52 9 52 20 0 11 -11 18 -24 15 -14 -3 -34 15 -45 40 -21 45 -51 61
-51 26z"/>
</g>
</svg>
